#!OML:ASF F:\VICON\USERDATA\INSTALL\rory3\rory3.ASF
:FULLY-SPECIFIED
:DEGREES
46
root 0.35238083696524447 17.907023991751178 13.44261790290709 -4.168236731450499 -4.259991272030012 -1.1023328257953584
lfemur -18.444489716706528 -2.708019409398728 -22.63419428685458
ltibia 26.35836205007594
lfoot -5.702971044177384 -3.425731998463922
ltoes 1.272643677501931
rfemur -1.4501674365728938 1.9506900797364652 23.94490696127662
rtibia 62.34813343345107
rfoot 13.005938298251012 -2.0852865678275805
rtoes 12.960006800593614
lowerback 10.349247649504559 2.0763425177346444 0.6699697799301758
upperback 0.14930401697935827 2.8241343647274846 0.15288016400460425
thorax -5.303286363832242 1.3954076180252932 -0.7747780825097779
lowerneck -16.388166253253882 -3.199953529078144 -1.4902504498804554
upperneck 20.55274929528059 -4.425656466691047 1.7399971877118612
head 9.259437063797423 -2.043544850277826 0.28896475918516973
lclavicle -4.527353707647403e-16 -7.759961513492424e-16
lhumerus -38.65282933374859 14.036957578859818 77.04838360182721
lradius 17.79497264409162
lwrist 2.3214874035860893
lhand -26.829929411684503 22.801558859719698
lfingers 7.12502
lthumb -0.1178070012986363 53.16400012276358
rclavicle -4.562706613588149e-16 -7.775219354901258e-16
rhumerus -24.711682399909193 -15.517332336726055 -81.70691155739445
rradius 30.003332447256536
rwrist 1.6505149240021009
rhand -18.244579587149012 23.05455532580732
rfingers 7.12502
rthumb 7.974908470463058 -6.872412315883282
47
root 0.3770272456702638 17.942201358325903 14.06943812703861 -4.7751267750386575 -4.266913820493762 -0.7498219322132946
lfemur -15.520120938906484 -2.466230387647183 -23.483604427532736
ltibia 26.864280700799576
lfoot -7.642895627603167 -2.6802772522105527
ltoes 2.2182718038252687
rfemur -6.499423306571137 0.9394226376195349 23.464231121371398
rtibia 69.1326829305491
rfoot 9.742603675265594 -5.263513441960331
rtoes 13.363610014765662
lowerback 10.810886568729522 1.801914083666685 0.20483460754030136
upperback 0.26557258967973835 2.450397950595109 0.25482124320796506
thorax -5.488203856641226 1.2229745915872012 -0.3723483995977258
lowerneck -16.255053513878075 -3.0709431595547714 -1.5317845272650137
upperneck 20.47318208425051 -4.181835351167712 1.6878287151894564
head 9.207289325936038 -1.9475107847842477 0.3347750649519187
lclavicle -4.546923119279963e-16 -7.775092100103893e-16
lhumerus -36.97900138811742 12.572880300850251 77.86194481636045
lradius 18.649476874484268
lwrist 2.9905024920098975
lhand -28.065318048844308 21.022067193182043
lfingers 7.12502
lthumb -1.2495808096205743 51.368764153284644
rclavicle -4.536255096454631e-16 -7.752792397713773e-16
rhumerus -25.285438675309607 -16.527187560165924 -81.46610765165244
rradius 28.693645122900687
rwrist 3.5226735371440006
rhand -17.81588261770164 22.363000415382253
rfingers 7.12502
rthumb 8.393756104383044 -7.353288138143771
48
root 0.3987019854863866 17.97251110376303 14.361437265909126 -4.970434247114429 -3.749999485786767 -0.09630684856673644
lfemur -12.707701884077212 -2.352627224388561 -24.620404760989658
ltibia 26.524769392474873
lfoot -9.627889918554631 -1.740289888123955
ltoes 2.129366789652971
rfemur -11.245726431795932 -0.15463950010447647 22.70126756613373
rtibia 73.0642247029894
rfoot 3.8738221831096045 -7.120261154375371
rtoes 12.634724754436519
lowerback 10.697574477809715 1.3774175704102842 -0.35124385711355854
upperback 0.41804600498174044 1.8081902470080213 0.25934923997519643
thorax -5.257341307231264 0.9184576912969589 0.10723513971495485
lowerneck -16.171124816129996 -2.9288044857829827 -1.5341355529198122
upperneck 20.50143126815296 -3.9502352193873276 1.6182256816189362
head 9.203231802762328 -1.848331253253825 0.3732734743432791
lclavicle -4.547190566861234e-16 -7.775301297552149e-16
lhumerus -34.90815545571115 11.22032244431219 78.48612063682764
lradius 19.371680678581228
lwrist 3.7115143069972225
lhand -28.87915111391478 19.369608258171404
lfingers 7.12502
lthumb -2.2017697443338204 49.41786282327608
rclavicle -4.534151686387089e-16 -7.750656271119842e-16
rhumerus -25.960025128706462 -17.74131011253587 -81.19622789034031
rradius 27.79439691675268
rwrist 4.555107309770781
rhand -17.348165533326572 21.723932790475853
rfingers 7.12502
rthumb 8.845284770100402 -8.05222644335719
49
root 0.40034648142269136 17.97128106337271 14.49608606529259 -5.185381236504407 -3.031970452545251 0.15162881720533106
lfemur -10.060913952804661 -2.436642242018938 -25.237125973414557
ltibia 26.080501573132644
lfoot -11.531362806749124 -0.904969298824559
ltoes 2.5210055939344893
rfemur -15.997886267121759 -0.973222538163871 22.609480566986907
rtibia 74.19755615506755
rfoot -0.7261880022145437 -7.113081090566253
rtoes 11.270537901259875
lowerback 10.868081786983034 0.9494985282892874 -0.6967959327338467
upperback 0.47506917435209634 1.2046837165624322 0.3896472423230435
thorax -5.334975323683254 0.6276516042683435 0.6306737104839795
lowerneck -16.066848793869987 -2.832920940076663 -1.622145934792183
upperneck 20.615228716980226 -3.772639927269062 1.5774533716353025
head 9.23021335434466 -1.7765782774915264 0.4106596430362382
lclavicle -4.541982680774159e-16 -7.771276827352765e-16
lhumerus -32.716688258259715 9.327731444288016 79.09538644225078
lradius 20.146282728192055
lwrist 4.447194993856893
lhand -28.73990510865925 19.37871824518532
lfingers 7.12502
lthumb -1.9571076550548454 49.55662375936209
rclavicle -4.504805502505735e-16 -7.728544727244439e-16
rhumerus -26.987404661577774 -18.57273853272942 -80.86248423206227
rradius 27.373206099612517
rwrist 4.167553339393388
rhand -17.032984896506203 21.335641906458747
rfingers 7.12502
rthumb 9.163331901811903 -8.454312171738785
